# xmcd
#
# Track frame offsets:
#	150
#	18606
#	39710
#	53077
#	72690
#	97352
#	116242
#	142183
#	158771
#	186120
#	205289
#	218893
#
# Disc length: 3154 seconds
#
# Revision: 0
# Processed by: cddbd v1.5.2PL0 Copyright (c) Steve Scherf et al.
# Submitted via: EasyCDDAExtractor 12.0.4.1
#
DISCID=c40c500c
DTITLE=Wiesław Bednarek - Romans rosyjski
DYEAR=2011
DGENRE=Romans
TTITLE0=Płoń. płoń moja gwiazdo
TTITLE1=Tylko raz
TTITLE2=Oczy czarne
TTITLE3=Długą drogą
TTITLE4=Wychodzę sam jeden na drogę
TTITLE5=Woźnico nie poganiaj koni
TTITLE6=Ja Panią spotkałem
TTITLE7=Dzwonki
TTITLE8=List do matki
TTITLE9=Ej wożnico, pędź do Jaru
TTITLE10=Trojka
TTITLE11=Białej akacji wonne kiście
EXTD=
EXTT0=
EXTT1=
EXTT2=
EXTT3=
EXTT4=
EXTT5=
EXTT6=
EXTT7=
EXTT8=
EXTT9=
EXTT10=
EXTT11=
PLAYORDER=
